<?xml version="1.0" encoding="UTF-8"?>
<svg xmlns="http://www.w3.org/2000/svg" width="1024" height="1024" viewBox="0 0 1024 1024">
  <path d="M 771 326 L 769 326 L 766 324 L 763 324 L 762 323 L 754 321 L 751 319 L 748 319 L 747 318 L 744 318 L 743 317 L 740 317 L 739 316 L 736 316 L 735 315 L 731 315 L 730 314 L 721 314 L 720 313 L 712 313 L 711 312 L 682 312 L 681 313 L 672 313 L 671 314 L 661 314 L 660 315 L 657 315 L 656 316 L 652 316 L 648 318 L 645 318 L 641 320 L 638 320 L 637 321 L 635 321 L 629 324 L 623 325 L 593 340 L 590 343 L 589 343 L 587 345 L 584 346 L 582 348 L 578 350 L 574 354 L 573 354 L 564 362 L 563 362 L 549 376 L 549 377 L 539 388 L 537 392 L 529 402 L 528 406 L 525 409 L 522 416 L 520 418 L 517 424 L 518 425 L 515 429 L 514 433 L 509 443 L 509 445 L 507 449 L 507 452 L 506 453 L 507 454 L 506 455 L 506 457 L 504 461 L 504 464 L 503 465 L 503 469 L 502 470 L 501 478 L 500 479 L 500 484 L 499 485 L 499 492 L 498 493 L 498 505 L 497 506 L 497 830 L 498 831 L 498 836 L 499 837 L 500 842 L 502 846 L 504 848 L 505 851 L 511 858 L 512 858 L 516 862 L 522 865 L 525 865 L 526 866 L 528 866 L 532 868 L 545 868 L 546 867 L 550 867 L 554 865 L 557 865 L 564 861 L 572 853 L 573 853 L 573 852 L 576 849 L 578 845 L 578 843 L 580 840 L 580 838 L 581 837 L 581 834 L 582 833 L 582 675 L 583 674 L 589 677 L 600 685 L 611 690 L 613 692 L 621 696 L 623 696 L 626 698 L 632 699 L 635 701 L 637 701 L 643 704 L 646 704 L 647 705 L 653 706 L 654 707 L 657 707 L 658 708 L 663 708 L 664 709 L 665 708 L 666 709 L 672 709 L 673 710 L 679 710 L 680 711 L 712 711 L 713 710 L 722 710 L 723 709 L 727 709 L 728 708 L 729 709 L 730 708 L 735 708 L 736 707 L 744 706 L 745 705 L 747 705 L 748 704 L 750 704 L 751 703 L 753 703 L 754 702 L 756 702 L 757 701 L 759 701 L 760 700 L 762 700 L 763 699 L 771 697 L 785 690 L 787 688 L 789 688 L 793 686 L 795 684 L 798 683 L 803 679 L 806 678 L 808 676 L 812 674 L 818 668 L 822 666 L 845 644 L 845 643 L 849 639 L 849 638 L 856 631 L 856 630 L 858 628 L 863 620 L 864 621 L 863 620 L 868 613 L 869 609 L 871 605 L 873 603 L 879 591 L 879 589 L 880 588 L 879 587 L 882 582 L 882 580 L 883 579 L 883 577 L 885 573 L 885 570 L 886 569 L 886 567 L 888 563 L 888 559 L 889 558 L 890 550 L 891 549 L 891 547 L 890 546 L 891 545 L 891 541 L 892 540 L 892 532 L 893 531 L 893 520 L 894 519 L 894 506 L 893 505 L 893 493 L 892 492 L 892 485 L 891 484 L 891 479 L 890 478 L 891 477 L 890 475 L 890 470 L 889 469 L 889 466 L 887 462 L 887 459 L 886 458 L 886 456 L 885 455 L 885 453 L 884 452 L 884 450 L 883 449 L 883 447 L 882 446 L 882 444 L 881 443 L 879 435 L 877 432 L 877 430 L 874 426 L 874 424 L 872 420 L 870 418 L 867 410 L 864 407 L 863 404 L 859 399 L 858 396 L 855 393 L 853 389 L 847 383 L 845 379 L 844 379 L 843 377 L 842 377 L 832 366 L 831 366 L 821 356 L 817 354 L 809 347 L 806 346 L 801 342 L 798 341 L 790 335 L 788 335 Z M 683 397 L 707 397 L 708 398 L 715 398 L 716 399 L 719 399 L 720 400 L 727 401 L 730 403 L 735 404 L 738 406 L 744 407 L 746 409 L 751 411 L 753 413 L 761 417 L 770 425 L 771 425 L 784 438 L 784 439 L 788 443 L 788 444 L 794 452 L 796 457 L 798 459 L 798 461 L 800 464 L 800 466 L 802 468 L 804 476 L 806 479 L 806 482 L 807 483 L 807 486 L 808 487 L 808 494 L 809 495 L 809 504 L 810 505 L 810 515 L 809 516 L 810 518 L 809 519 L 809 529 L 808 530 L 809 532 L 808 533 L 808 537 L 807 538 L 807 541 L 806 542 L 806 544 L 805 545 L 803 553 L 799 560 L 799 562 L 797 566 L 795 568 L 794 571 L 788 579 L 788 580 L 785 583 L 785 584 L 783 585 L 782 587 L 773 596 L 772 596 L 770 598 L 769 600 L 768 600 L 765 603 L 764 603 L 756 609 L 753 610 L 751 612 L 748 613 L 744 616 L 741 616 L 731 621 L 729 621 L 725 623 L 722 623 L 721 624 L 717 624 L 713 626 L 679 626 L 678 625 L 672 625 L 671 624 L 669 624 L 665 622 L 662 622 L 661 621 L 653 619 L 650 617 L 642 615 L 640 613 L 637 612 L 629 606 L 626 605 L 617 597 L 616 597 L 607 588 L 607 587 L 603 583 L 603 582 L 598 576 L 594 567 L 592 565 L 588 557 L 589 556 L 587 553 L 587 551 L 586 550 L 586 548 L 584 544 L 584 541 L 583 540 L 583 537 L 582 536 L 582 532 L 581 531 L 581 524 L 580 523 L 580 500 L 581 499 L 581 493 L 582 492 L 582 488 L 583 487 L 583 484 L 584 483 L 585 476 L 588 470 L 589 464 L 591 460 L 593 458 L 594 455 L 596 453 L 598 448 L 603 442 L 603 441 L 617 426 L 618 426 L 627 418 L 633 415 L 635 413 L 638 412 L 640 410 L 646 407 L 648 407 L 649 406 L 651 406 L 652 405 L 654 405 L 655 404 L 657 404 L 658 403 L 660 403 L 661 402 L 663 402 L 667 400 L 670 400 L 671 399 L 676 399 L 677 398 L 682 398 Z M 148 160 L 136 172 L 133 178 L 133 180 L 131 184 L 131 187 L 130 188 L 130 192 L 129 193 L 129 678 L 130 679 L 130 683 L 133 689 L 133 692 L 134 694 L 135 694 L 136 695 L 136 697 L 137 697 L 138 699 L 145 706 L 146 706 L 148 708 L 150 708 L 152 710 L 156 712 L 158 712 L 162 714 L 167 714 L 168 715 L 177 715 L 178 714 L 182 714 L 183 713 L 186 713 L 189 711 L 191 711 L 193 709 L 198 707 L 208 697 L 208 696 L 210 694 L 214 686 L 214 684 L 215 683 L 214 682 L 215 681 L 215 677 L 216 676 L 216 462 L 217 461 L 217 458 L 218 457 L 220 449 L 224 442 L 225 438 L 233 428 L 233 427 L 244 416 L 245 416 L 259 406 L 262 406 L 267 403 L 269 403 L 272 401 L 274 401 L 278 399 L 282 399 L 283 398 L 289 398 L 290 397 L 306 397 L 307 398 L 313 398 L 314 399 L 321 400 L 324 402 L 326 402 L 329 404 L 331 404 L 334 406 L 336 406 L 340 408 L 343 411 L 344 411 L 347 414 L 348 414 L 361 427 L 361 428 L 369 439 L 370 443 L 372 446 L 372 450 L 373 451 L 373 454 L 374 455 L 374 460 L 375 461 L 375 679 L 376 680 L 376 684 L 378 687 L 378 689 L 382 697 L 390 706 L 406 714 L 409 714 L 410 715 L 425 715 L 426 714 L 429 714 L 430 713 L 432 713 L 435 711 L 439 710 L 441 708 L 444 707 L 447 704 L 448 704 L 449 702 L 451 701 L 451 700 L 455 695 L 460 685 L 460 682 L 461 681 L 461 675 L 462 674 L 462 458 L 461 457 L 461 446 L 460 445 L 459 433 L 458 432 L 458 429 L 457 428 L 456 421 L 455 420 L 455 418 L 453 414 L 454 413 L 453 412 L 452 407 L 450 404 L 450 402 L 448 398 L 446 396 L 446 394 L 440 382 L 434 375 L 434 374 L 432 372 L 432 370 L 430 369 L 430 368 L 425 363 L 425 362 L 409 346 L 408 346 L 404 342 L 403 342 L 398 337 L 397 337 L 395 335 L 393 335 L 388 331 L 385 330 L 383 328 L 375 324 L 372 324 L 367 321 L 362 320 L 359 318 L 356 318 L 355 317 L 349 316 L 348 315 L 345 315 L 344 314 L 338 314 L 337 313 L 336 314 L 335 313 L 328 313 L 327 312 L 298 312 L 297 313 L 290 313 L 289 314 L 282 314 L 281 315 L 278 315 L 277 316 L 275 316 L 271 318 L 265 319 L 260 322 L 258 322 L 255 324 L 253 324 L 245 328 L 235 335 L 233 335 L 230 338 L 229 338 L 228 340 L 227 340 L 219 347 L 218 347 L 217 349 L 216 348 L 216 192 L 215 191 L 215 188 L 214 187 L 215 186 L 214 185 L 214 182 L 208 171 L 198 161 L 191 157 L 188 157 L 187 156 L 181 155 L 180 154 L 165 154 L 164 155 L 160 155 L 159 156 L 154 157 Z" fill="#0132B3" fill-rule="evenodd"/>
</svg>
