<svg xmlns="http://www.w3.org/2000/svg" viewBox="0 0 503.974 240.004">
  <path fill="currentColor" d="M501.304,121.801c-2.349-7.879-6.293-15.86-11.721-23.718c-19.75-28.638-54.655-49.571-66.097-56.432l-1.782-1.075  c-8.714-5.182-18.003-9.96-27.608-14.201c-25.445-11.238-53.325-19.017-82.867-23.123c-13.687-1.897-27.678-2.977-41.585-3.208  c-44.65-0.716-88.822,7.351-127.762,23.319c-11.887,4.876-23.403,10.532-34.226,16.809c-19.839,11.481-37.903,25.342-53.691,41.2  l0,0.001c-0.125,0.121-0.277,0.272-0.402,0.399l-0.87,0.881l2.826,2.831v0.005h-0.005l-2.849-2.798  C41.883,93.67,31.96,105.838,23.175,118.855c-7.812,11.569-14.85,24.002-20.917,36.953c-5.041,10.769-1.396,23.876,8.492,30.5  c0.096,0.063,0.792,0.52,1.09,0.705l0,0.001c8.492,5.207,19.49,4.588,27.365-1.542c1.458-1.133,2.956-2.276,4.509-3.432  c5.897-4.433,11.987-8.661,18.11-12.573c2.85-1.833,5.768-3.62,8.715-5.358c0.315,5.97,0.96,11.952,1.936,17.861  c5.603,33.626,34.418,58.033,68.516,58.033H380.2c27.962,0,53.322-16.967,64.054-42.522c1.857,0.122,3.686,0.205,5.456,0.205  c14.373,0,25.915-4.021,35.107-12.193c16.346-14.526,18.735-36.513,19.078-42.912C504.254,135.705,503.381,128.709,501.304,121.801z   M491.763,118.716c-20.628-0.51-40.963,2.588-60.533,9.251c-29.187,9.938-50.514,26.032-63.749,38.422  c-2.286-0.902-4.587-1.812-6.915-2.733c-2.51-0.994-5.051-1.999-7.609-3.007c15.379-15.465,39.74-34.656,73.741-46.229  c18.608-6.331,37.932-9.697,57.473-10.032C487.319,109.166,489.868,113.961,491.763,118.716z M411.223,43.784  c-22.626,6.759-57.057,19.74-84.222,41.741c-11.138,9.023-20.745,19.153-21.151,19.583c-8.846,9.374-16.899,19.631-23.994,30.508  c-4.848-1.384-9.666-2.682-14.394-3.86c13.672-21.923,30.698-41.21,50.673-57.383c21.637-17.508,47.233-31.328,74.104-40.048  C398.756,37.247,405.121,40.407,411.223,43.784z M31.853,139.019c-0.862-5.552-1.301-11.164-1.343-16.708  c5.068-7.43,10.51-14.571,16.285-21.349c-2.095,10.152-3.042,22.349-0.948,35.843c1.486,9.601,4.4,18.963,8.657,27.887  c-3.975,2.609-7.925,5.335-11.806,8.159C37.318,162.102,33.668,150.745,31.853,139.019z M100.056,140.381  c-2.466-20.63-1.516-41.937,2.805-61.954c2.356-10.928,5.718-21.683,9.98-32c6.703-3.841,13.672-7.435,20.83-10.747  c-7.805,14.363-13.503,29.713-16.97,45.79c-3.789,17.549-4.786,35.601-2.979,53.708  C109.152,136.771,104.581,138.503,100.056,140.381z M233.227,39.33c11.276-11.849,23.899-22.352,37.52-31.258  c8.547,0.173,17.119,0.675,25.627,1.495c-11.792,6.094-22.958,13.341-33.313,21.652c-2.426,1.941-11.009,8.976-19.607,18.015  c-19.514,20.487-34.732,45.596-44.165,72.763c-2.174-0.053-4.344-0.089-6.5-0.089c-2.852,0-5.673,0.061-8.475,0.153  C194.279,91.082,211.113,62.565,233.227,39.33z M380.2,232.003H140.99c-30.171,0-55.667-21.595-60.623-51.341  c-1.146-6.942-1.814-13.994-1.999-20.998c6.568-3.592,13.287-6.92,20.021-9.879c6.879-3.023,13.917-5.741,20.916-8.077  c11.617-3.873,23.544-6.822,35.451-8.768c7.945-1.3,16.121-2.193,24.298-2.654c7.425-0.418,15.134-0.49,22.908-0.217  c18.684,0.691,37.763,3.366,58.323,8.177c7.199,1.69,14.665,3.664,22.19,5.864c22.359,6.552,43.886,14.694,61.997,21.797  c4.452,1.742,8.836,3.478,13.149,5.186c3.136,1.241,6.235,2.468,9.292,3.671c25.775,10.155,48.923,18.831,68.992,21.812  C425.915,217.957,404.136,232.003,380.2,232.003z"/>
</svg>