<svg class="skill-svg-icon filled" xmlns="http://www.w3.org/2000/svg" viewBox="0 15 100 70" aria-hidden="true">
  <path fill="currentColor" d="m24.246 28.887c0.11328 0.47266 0.69922 2.5625 2.7266 4.8633 3.043 3.4531 7.9648 5.8438 14.242 6.9258 2.7422-0.35156 5.2383-0.53906 7.8047-0.61719-6.7109-4.0078-11.102-10.359-12.773-16.57-2.4961-0.54688-3.0078-1-3.9414-0.62891-2.4648 0.98047-4.8633 2.1719-7.1328 3.5391-1.2305 0.74219-0.86328 2.1172-0.92578 2.4883z"/>
  <path fill="currentColor" d="m19.516 45.477c0.125 0.003907 0.22266 0.019532 0.35938 0.058594 3.25 0.4375 4.2734-1.4023 14.246-3.6211-8.8125-3.2578-11.664-8.8633-12.523-11.363h-1.668c-1.0547 0-1.4023 0.70312-3.375 2.1172-5.4648 4.25-2.2539 11.801 2.9609 12.809z"/>
  <path fill="currentColor" d="m56.723 40.203c1.7734 0.12109 3.5469 0.29688 5.3086 0.53516-1.3711-1.3398-2.5938-2.8125-3.6523-4.4102-0.45703-0.69141-0.26953-1.625 0.42188-2.082 0.69141-0.46094 1.625-0.26953 2.082 0.42188 1.8984 2.8672 4.3828 5.2773 7.3711 7.1719 3.4297 0.74609 5.4102 1.3945 8.9492 2.3398-5.1836-4.8906-7.5-12.527-7.5352-19.148-1.3672-1.6875-1.4883-2.2812-2.3477-2.5977-2.9648-1.0977-6.0547-1.9141-9.1797-2.4141-0.59375-0.09375-1.1914 0.10938-1.6172 0.52344 0.011718 1.2031 0.18359 4.5508 1.5508 8.4453 0.27344 0.78516-0.13672 1.6406-0.92188 1.918-0.78125 0.27344-1.6406-0.13672-1.918-0.92188-1.4258-4.0586-1.6836-7.5508-1.7188-9.1445-1.418-0.875-1.7812-1.4297-2.7109-1.4375-3.4102-0.03125-6.832 0.29688-10.172 0.97656-1.4414 0.29297-1.5273 1.7695-1.5977 1.9102 0.21875 0.91797 1.0312 3.8398 3.1406 7.1211 3.3594 5.207 8.25 8.8359 14.547 10.793z"/>
  <path fill="currentColor" d="m71.672 45.777c-16.902-4.6602-29.828-2.0742-30.52-2.082-12.52 1.6992-16.258 4.8594-20.289 4.9062 0 4.4062 2.3672 8.1016 5.6836 10.953h46.91c3.6641-3.1484 6.0938-7.293 5.625-12.078-2.1602-0.046874-3.4102-0.67187-7.4102-1.6992zm-35.645 8.8242-1.5039 1.5039c-0.58594 0.58594-1.5391 0.58594-2.125 0-0.58594-0.58594-0.58594-1.5391 0-2.125l1.5039-1.5039c0.58594-0.58594 1.5391-0.58594 2.125 0 0.58594 0.58594 0.58594 1.5391 0 2.125zm9.0234-3.0078c-0.58594 0.58594-1.5391 0.58594-2.125 0l-1.5039-1.5039c-0.58594-0.58594-0.58594-1.5391 0-2.125 0.58594-0.58594 1.5391-0.58594 2.125 0l1.5039 1.5039c0.58594 0.58594 0.58594 1.5391 0 2.125zm6.4531-1.0625c-1.3281 0-2.0117-1.6172-1.0625-2.5664l1.5039-1.5039c0.58594-0.58594 1.5391-0.58594 2.125 0 0.58594 0.58594 0.58594 1.5391 0 2.125-1.2578 1.125-1.5742 1.9453-2.5664 1.9453zm6.0156 6.0156c-0.99219 0-1.3008-0.81641-2.5664-1.9453-0.58594-0.58594-0.58594-1.5391 0-2.125 0.58594-0.58594 1.5391-0.58594 2.125 0l1.5039 1.5039c0.94922 0.94922 0.26172 2.5664-1.0625 2.5664zm8.5781-6.4531c-1.2578 1.1211-1.5742 1.9453-2.5664 1.9453-1.3281 0-2.0117-1.6172-1.0625-2.5664l1.5039-1.5039c0.58594-0.58594 1.5391-0.58594 2.125 0 0.58984 0.58594 0.58984 1.5352 0 2.125zm6.457 6.4531c-0.99219 0-1.3008-0.81641-2.5664-1.9453-0.58594-0.58594-0.58594-1.5391 0-2.125 0.58594-0.58594 1.5391-0.58594 2.125 0l1.5039 1.5039c0.94922 0.94922 0.26562 2.5664-1.0625 2.5664z"/>
  <path fill="currentColor" d="m81.816 43.969c4.6602-1.9414 6.6055-9.1836 1.168-12.75-8.7227-5.6602-9.0469-6.168-10.297-5.7891 0.089844 3.0234 1.0039 13.43 9.1289 18.539z"/>
  <path fill="currentColor" d="m1.8867 62.562v7.8867c0 2.2266 1.8125 4.043 4.043 4.043h88.145c2.2266 0 4.043-1.8125 4.043-4.043v-7.8867z"/>
  <path fill="currentColor" d="m12.41 77.598h75.176v3.0078h-75.176z"/>
</svg>