<svg xmlns="http://www.w3.org/2000/svg" viewBox="0 5 100 90">
  <path fill="currentColor" d="m56.609 41.578c-7.1562-0.95312-14.375-0.51562-21.172 1.2031-0.015625 0-0.046875 0.015625-0.0625 0.015625-0.078125 0-0.15625 0-0.21875 0.046875-0.0625 0-0.125 0.015625-0.17188 0.046875-4.6875 1.2031-9.2031 3.0312-13.375 5.4219-0.078125 0.046875-0.15625 0.078125-0.23438 0.14062-2.4062 1.375-4.7031 2.9531-6.875 4.7188-1.7656 1.4375-3.1875 3.125-4.2656 4.9531-0.046875 0.0625-0.078125 0.14062-0.10938 0.20312-2.7188 4.6875-3.125 10.359-0.82812 15.312v0.03125c-0.375 1.8906-1.1094 7.7656 2.7344 12.484 3.2656 4.0156 8.8594 6.0312 16.688 6.0312 0.9375 0 1.9219-0.03125 2.9219-0.09375 16.484-0.95312 29.547-6.4062 35.812-14.938 3.4219-4.6875 4.6094-10.062 3.4531-15.641 1.1875-1.1719 1.9844-2.625 2.3125-4.25 0.59375-3.0781-0.51562-6.5469-2.9844-9.2812-3.4219-3.9219-9.2969-5.875-13.625-6.4062zm0.59375 4.2812c0.5 1.0312 0.84375 2.0938 1.1719 3.125 0.39062 1.2188 0.76562 2.3906 1.3594 3.3281 0.5 0.8125 1.2188 1.4844 1.9844 2.1875 0.39062 0.35938 0.78125 0.71875 1.1562 1.1094 1.4844 1.5156 2.6719 3.3281 3.4531 5.2188-0.84375 0.32812-1.9844 0.54688-3.1562 0.60938-0.625-1.3125-1.5-2.5938-2.5469-3.6562-0.32812-0.34375-0.6875-0.67188-1.0312-0.98438-0.875-0.82812-1.7812-1.6719-2.5-2.8281-0.8125-1.2656-1.25-2.6719-1.6875-4.0312-0.3125-0.96875-0.60938-1.8906-1-2.7031-0.5625-1.1094-1.2812-2.1094-2.1562-2.9375 1.3281 0.078125 2.6406 0.20312 3.9688 0.375 0.10938 0.015625 0.23438 0.03125 0.34375 0.046875 0.23438 0.375 0.4375 0.75 0.64062 1.1406zm-19.156-0.48438c0.15625 0.26562 0.28125 0.53125 0.39062 0.79688 0.28125 0.5625 0.53125 1.2188 0.78125 1.8594 0.46875 1.2031 0.89062 2.2344 1.6094 3.0781 0.98438 1.2031 2.6719 1.875 4.4531 2.5938 2.1562 0.875 4.375 1.7656 5.8594 3.7031 1.0469 1.5469 1.75 3.3281 2.125 5.4219-1 0.34375-1.9844 0.76562-2.9688 1.2188-0.26562-1.9688-0.82812-3.5469-1.6875-4.8281-0.90625-1.1719-2.6562-1.875-4.5-2.6094-2.0625-0.84375-4.2031-1.7031-5.6562-3.4844-1.0625-1.2188-1.6094-2.6094-2.1406-3.9531-0.21875-0.57812-0.45312-1.1562-0.71875-1.7188-0.1875-0.4375-0.42188-0.875-0.6875-1.2969 1.0469-0.3125 2.0781-0.5625 3.1406-0.78125zm-12.547 6.8125c0.375 0.78125 0.65625 1.5938 0.9375 2.375 0.5 1.4531 0.96875 2.8281 1.9375 3.7344 1.0469 1 2.5 1.7188 4.0312 2.4844 1.75 0.875 3.5625 1.7812 5 3.2031 1.0938 1.125 1.8125 2.5469 2.125 4.25 0.09375 0.64062 0.17188 1.2812 0.21875 1.9531-1.0156 0.64062-2.0156 1.2656-3.0469 1.8906-0.015625-1.2031-0.09375-2.2969-0.25-3.3125-0.1875-1.0312-0.625-1.9219-1.2656-2.5781-1.0625-1.0469-2.5781-1.7969-4.1719-2.6094-1.6719-0.82812-3.4062-1.6875-4.7969-3-1.5156-1.4531-2.1562-3.3281-2.7344-4.9844-0.26562-0.75-0.5-1.4531-0.8125-2.0938-0.28125-0.60938-0.57812-1.1719-0.89062-1.6719 0.89062-0.53125 1.7969-1.0469 2.7188-1.5312 0.35938 0.57812 0.6875 1.2031 1 1.8906zm-10.547 8.5938c0.53125 0.82812 0.96875 1.7031 1.3594 2.4688 0.53125 1.0469 1.0312 2.0312 1.5156 2.4688 0.8125 0.51562 1.8281 0.8125 2.9219 1.125 1.9688 0.57812 4.2031 1.2188 5.7031 3.3594 1.1719 1.3906 2.0625 3.4375 2.5781 5.8438-0.98438 0.39062-1.9844 0.73438-2.9844 1-0.39062-2.0469-1.125-3.8125-2.0625-4.9375-0.95312-1.3594-2.4219-1.7812-4.1094-2.2656-1.2969-0.375-2.625-0.76562-3.8438-1.5625-0.046875-0.03125-0.09375-0.0625-0.14062-0.10938-1-0.82812-1.6562-2.125-2.3594-3.5-0.375-0.75-0.76562-1.5156-1.2188-2.2344-0.125-0.21875-0.26562-0.42188-0.42188-0.625 0.40625-1.0469 0.9375-2.0469 1.6094-3 0.54688 0.625 1.0312 1.2969 1.4531 1.9688zm49.969 14.516c-5.7031 7.7812-17.906 12.781-33.469 13.688-8.2812 0.48438-14-1.125-16.984-4.7812-1.6719-2.0312-2.2188-4.4375-2.3281-6.4062 1.7188 1.6875 3.8125 2.6719 6.2344 2.9219 0.89062 0.10938 1.75 0.17188 2.625 0.17188 2.5156 0 4.9375-0.46875 7.2812-1.2344l0.23438-0.09375c3.5938-1.1875 7-3.0938 10.344-5.1562 0.10938-0.046875 0.20312-0.09375 0.29688-0.17188 1.0312-0.625 2.0469-1.2656 3.0625-1.9219 3.5156-2.2188 6.9219-4.375 10.328-5.8594l0.14062-0.046875c2.8125-1.2031 5.625-1.9375 8.5-1.8438 1.1875 0.09375 2.8125 0.03125 4.375-0.29688 0.0625-0.015625 0.125-0.015625 0.20312-0.046875 0.8125-0.17188 1.5938-0.40625 2.2812-0.75 0.57812 4.2344-0.48438 8.2188-3.1406 11.828z"/>
  <path fill="currentColor" d="m92.156 23.016c0.23438-2.8281-0.90625-5.8594-3.1094-8.2969-3.4219-3.9219-9.2969-5.8906-13.625-6.4062-1.1094-0.15625-2.2812-0.26562-3.5625-0.35938h-0.10938c-5.9219-0.40625-11.844 0.125-17.625 1.5781-0.03125 0-0.078125 0.015625-0.125 0.03125h-0.03125c-0.03125 0-0.0625 0-0.09375 0.015625-4.7188 1.2188-9.2344 3.0469-13.422 5.4531-0.10938 0.046875-0.23438 0.10938-0.34375 0.1875-2.3906 1.3906-4.6719 2.9531-6.7969 4.6875-1.7031 1.375-3.125 3.0156-4.2031 4.875-0.03125 0.046875-0.0625 0.10938-0.09375 0.15625s-0.046875 0.09375-0.078125 0.14062c0 0.03125-0.03125 0.046875-0.03125 0.078125v0.03125c-2.6875 4.7344-2.9844 10.359-0.8125 15.109 0.26562 0.5625 0.82812 0.90625 1.4219 0.90625 0.21875 0 0.4375-0.046875 0.65625-0.14062 0.78125-0.35938 1.125-1.2812 0.76562-2.0781-1.5-3.2812-1.5625-6.9688-0.21875-10.391 0.14062 0.1875 0.28125 0.375 0.40625 0.57812 0.45312 0.70312 0.82812 1.4688 1.2031 2.2031 0.70312 1.3906 1.375 2.6875 2.5156 3.625 1.2188 0.8125 2.5469 1.2031 3.8438 1.5781 1.2344 0.35938 2.4062 0.70312 3.25 1.375 0.28125 0.21875 0.625 0.32812 0.96875 0.32812 0.46875 0 0.92188-0.20312 1.2344-0.59375 0.53125-0.67188 0.42188-1.6562-0.26562-2.1875-1.3281-1.0469-2.8594-1.4844-4.3281-1.9219-1.1094-0.32812-2.1719-0.625-2.8594-1.0781-0.51562-0.42188-1.0312-1.4375-1.5781-2.5312-0.39062-0.76562-0.82812-1.625-1.3438-2.4375-0.42188-0.67188-0.92188-1.3125-1.4531-1.9375v-0.015625c0.79688-1.2031 1.7969-2.2812 2.9531-3.2188 1.6719-1.3594 3.4688-2.625 5.3281-3.7656 0.3125 0.51562 0.59375 1.0625 0.875 1.6562 0.3125 0.65625 0.5625 1.3594 0.8125 2.1094 0.57812 1.6562 1.2344 3.5156 2.7344 4.9688 1.3906 1.3125 3.125 2.1719 4.7969 3 1.5938 0.79688 3.0938 1.5625 4.1562 2.6094 0.65625 0.65625 1.0781 1.5469 1.2812 2.5469 0.078125 0.5 0.125 1.0156 0.15625 1.5312 0.046875 0.71875 0.57812 1.3281 1.2969 1.4531 2.625 0.45312 5.3281-0.078125 7.6094-1.4844 2.8594-1.75 5.0312-2.9219 7.0781-3.7969l0.078125-0.046875s0.03125 0 0.03125-0.015625c0.015625 0 0.046875-0.015625 0.0625-0.03125 3.0625-1.2969 5.8438-1.875 8.3906-1.7812 1.3438 0.10938 2.8281 0 4.1562-0.28125 0.14062 0 0.29688-0.015625 0.4375-0.0625h0.015625c0.84375-0.17188 1.625-0.4375 2.2656-0.71875 0.92188 7.2031-2.8125 13.688-10.703 18.453-0.73438 0.45312-0.96875 1.4062-0.53125 2.1406 0.29688 0.48438 0.8125 0.75 1.3438 0.75 0.28125 0 0.54688-0.078125 0.8125-0.21875 9.4688-5.7188 13.766-14.094 11.922-23.094 1.4375-1.4062 2.2812-3.2031 2.4375-5.2344zm-5.4531-6.2188c1.6562 1.8281 2.5 4 2.3438 5.9688-0.125 1.4375-0.76562 2.6719-1.9062 3.625-0.03125 0.03125-0.078125 0.0625-0.125 0.09375-0.39062 0.3125-0.84375 0.60938-1.4062 0.875-0.14062 0.078125-0.29688 0.14062-0.46875 0.20312h-0.015625c-0.78125-1.8906-1.9531-3.7031-3.4375-5.2344-0.375-0.375-0.75-0.75-1.1406-1.1094-0.76562-0.71875-1.4844-1.375-1.9844-2.1875-0.59375-0.9375-0.96875-2.1094-1.3594-3.3438-0.32812-1.0312-0.67188-2.0938-1.1719-3.125-0.20312-0.39062-0.40625-0.76562-0.64062-1.1406 4.625 0.64062 9.0312 2.7031 11.328 5.3438zm-24.016 17.516c-1.2969 0.79688-2.7656 1.2344-4.2656 1.1719-0.03125-0.17188-0.046875-0.35938-0.078125-0.53125-0.32812-1.6875-1.0312-3.1094-2.1406-4.2344-1.4375-1.4219-3.2344-2.3281-4.9844-3.2031-1.5312-0.76562-2.9844-1.4844-4.0312-2.4688-0.95312-0.92188-1.4375-2.2812-1.9375-3.7344-0.28125-0.79688-0.5625-1.625-0.9375-2.4062-0.3125-0.65625-0.64062-1.2812-0.98438-1.875 3.2812-1.75 6.7656-3.1406 10.375-4.1562 0.26562 0.4375 0.51562 0.875 0.70312 1.3125 0.28125 0.57812 0.5 1.1562 0.71875 1.7188 0.53125 1.3438 1.0781 2.7344 2.1406 3.9531 1.4531 1.7812 3.5938 2.6406 5.6562 3.4688 1.8438 0.75 3.5938 1.4531 4.5 2.625 0.85938 1.2656 1.4062 2.8594 1.6719 4.8125-1.875 0.89062-3.8906 2-6.4062 3.5312zm9.3906-4.7656c-0.375-2.0938-1.0781-3.875-2.125-5.4219-1.4688-1.9219-3.7031-2.8281-5.8594-3.7031-1.7812-0.71875-3.4688-1.3906-4.4375-2.5938-0.73438-0.84375-1.1406-1.8906-1.6094-3.0938-0.25-0.64062-0.51562-1.2969-0.78125-1.8594-0.10938-0.25-0.26562-0.51562-0.40625-0.78125h0.015625c4.6562-1 9.4219-1.3594 14.172-1.0625 0.85938 0.84375 1.6094 1.8281 2.1562 2.9219 0.39062 0.8125 0.6875 1.7188 1 2.6875 0.4375 1.3594 0.89062 2.7656 1.6875 4.0469 0.71875 1.1562 1.625 2 2.5156 2.8125 0.34375 0.32812 0.70312 0.64062 1.0312 0.98438 1.0469 1.0625 1.9062 2.3438 2.5312 3.6562-0.60938 0.046875-1.2188 0.046875-1.8125 0-2.5938-0.078125-5.25 0.35938-8.0781 1.375z"/>
</svg>